<mxfile host="app.diagrams.net" modified="2024-06-02T16:40:40.365Z" agent="Mozilla/5.0 (Windows NT 10.0; Win64; x64) AppleWebKit/537.36 (KHTML, like Gecko) Chrome/125.0.0.0 Safari/537.36 Edg/125.0.0.0" etag="oXUrYZkynWn_tSPIzBo2" version="24.4.13" type="device">
  <diagram name="Page-1" id="vog-MIykaYbHJPMKuD4-">
    <mxGraphModel dx="1216" dy="672" grid="1" gridSize="10" guides="1" tooltips="1" connect="1" arrows="1" fold="1" page="1" pageScale="1" pageWidth="827" pageHeight="1169" math="0" shadow="0">
      <root>
        <mxCell id="0" />
        <mxCell id="1" parent="0" />
        <mxCell id="QlxagLDDF9jE6hGfcNdt-1" value="Koordynator partnerski&lt;div&gt;&lt;br&gt;&lt;/div&gt;" style="shape=umlActor;verticalLabelPosition=bottom;verticalAlign=top;html=1;" vertex="1" parent="1">
          <mxGeometry x="40" y="290" width="50" height="100" as="geometry" />
        </mxCell>
        <mxCell id="QlxagLDDF9jE6hGfcNdt-3" value="Formularz logowania" style="shape=umlBoundary;whiteSpace=wrap;html=1;" vertex="1" parent="1">
          <mxGeometry x="150" y="300" width="100" height="80" as="geometry" />
        </mxCell>
        <mxCell id="QlxagLDDF9jE6hGfcNdt-11" style="edgeStyle=orthogonalEdgeStyle;rounded=0;orthogonalLoop=1;jettySize=auto;html=1;entryX=0;entryY=0.5;entryDx=0;entryDy=0;" edge="1" parent="1" source="QlxagLDDF9jE6hGfcNdt-4" target="QlxagLDDF9jE6hGfcNdt-5">
          <mxGeometry relative="1" as="geometry" />
        </mxCell>
        <mxCell id="QlxagLDDF9jE6hGfcNdt-4" value="Logowanie" style="ellipse;shape=umlControl;whiteSpace=wrap;html=1;" vertex="1" parent="1">
          <mxGeometry x="310" y="290" width="80" height="90" as="geometry" />
        </mxCell>
        <mxCell id="QlxagLDDF9jE6hGfcNdt-5" value="Użytkownicy" style="ellipse;shape=umlEntity;whiteSpace=wrap;html=1;" vertex="1" parent="1">
          <mxGeometry x="440" y="295" width="80" height="80" as="geometry" />
        </mxCell>
        <mxCell id="QlxagLDDF9jE6hGfcNdt-13" style="edgeStyle=orthogonalEdgeStyle;rounded=0;orthogonalLoop=1;jettySize=auto;html=1;" edge="1" parent="1" source="QlxagLDDF9jE6hGfcNdt-6" target="QlxagLDDF9jE6hGfcNdt-7">
          <mxGeometry relative="1" as="geometry" />
        </mxCell>
        <mxCell id="QlxagLDDF9jE6hGfcNdt-6" value="Zarządzaj produktami" style="shape=umlBoundary;whiteSpace=wrap;html=1;" vertex="1" parent="1">
          <mxGeometry x="570" y="295" width="100" height="80" as="geometry" />
        </mxCell>
        <mxCell id="QlxagLDDF9jE6hGfcNdt-7" value="Produkt" style="ellipse;shape=umlEntity;whiteSpace=wrap;html=1;" vertex="1" parent="1">
          <mxGeometry x="580" y="440" width="80" height="80" as="geometry" />
        </mxCell>
        <mxCell id="QlxagLDDF9jE6hGfcNdt-8" style="edgeStyle=orthogonalEdgeStyle;rounded=0;orthogonalLoop=1;jettySize=auto;html=1;entryX=0.002;entryY=0.561;entryDx=0;entryDy=0;entryPerimeter=0;" edge="1" parent="1" source="QlxagLDDF9jE6hGfcNdt-3" target="QlxagLDDF9jE6hGfcNdt-4">
          <mxGeometry relative="1" as="geometry" />
        </mxCell>
        <mxCell id="QlxagLDDF9jE6hGfcNdt-12" style="edgeStyle=orthogonalEdgeStyle;rounded=0;orthogonalLoop=1;jettySize=auto;html=1;entryX=-0.034;entryY=0.511;entryDx=0;entryDy=0;entryPerimeter=0;" edge="1" parent="1" source="QlxagLDDF9jE6hGfcNdt-5" target="QlxagLDDF9jE6hGfcNdt-6">
          <mxGeometry relative="1" as="geometry">
            <mxPoint x="580" y="280" as="targetPoint" />
          </mxGeometry>
        </mxCell>
        <mxCell id="QlxagLDDF9jE6hGfcNdt-14" value="Edytuj produkt" style="ellipse;shape=umlControl;whiteSpace=wrap;html=1;" vertex="1" parent="1">
          <mxGeometry x="450" y="480" width="80" height="90" as="geometry" />
        </mxCell>
        <mxCell id="QlxagLDDF9jE6hGfcNdt-15" value="Usuń produkt" style="ellipse;shape=umlControl;whiteSpace=wrap;html=1;" vertex="1" parent="1">
          <mxGeometry x="550" y="550" width="80" height="90" as="geometry" />
        </mxCell>
        <mxCell id="QlxagLDDF9jE6hGfcNdt-16" value="Dodaj produkt" style="ellipse;shape=umlControl;whiteSpace=wrap;html=1;" vertex="1" parent="1">
          <mxGeometry x="680" y="530" width="80" height="90" as="geometry" />
        </mxCell>
        <mxCell id="QlxagLDDF9jE6hGfcNdt-18" style="rounded=0;orthogonalLoop=1;jettySize=auto;html=1;entryX=0.23;entryY=0.157;entryDx=0;entryDy=0;entryPerimeter=0;" edge="1" parent="1" source="QlxagLDDF9jE6hGfcNdt-7" target="QlxagLDDF9jE6hGfcNdt-16">
          <mxGeometry relative="1" as="geometry" />
        </mxCell>
        <mxCell id="QlxagLDDF9jE6hGfcNdt-19" style="rounded=0;orthogonalLoop=1;jettySize=auto;html=1;entryX=0.707;entryY=0.157;entryDx=0;entryDy=0;entryPerimeter=0;" edge="1" parent="1" source="QlxagLDDF9jE6hGfcNdt-7" target="QlxagLDDF9jE6hGfcNdt-15">
          <mxGeometry relative="1" as="geometry" />
        </mxCell>
        <mxCell id="QlxagLDDF9jE6hGfcNdt-20" style="rounded=0;orthogonalLoop=1;jettySize=auto;html=1;entryX=1;entryY=0.444;entryDx=0;entryDy=0;entryPerimeter=0;" edge="1" parent="1" source="QlxagLDDF9jE6hGfcNdt-7" target="QlxagLDDF9jE6hGfcNdt-14">
          <mxGeometry relative="1" as="geometry" />
        </mxCell>
        <mxCell id="QlxagLDDF9jE6hGfcNdt-21" style="edgeStyle=orthogonalEdgeStyle;rounded=0;orthogonalLoop=1;jettySize=auto;html=1;entryX=-0.007;entryY=0.506;entryDx=0;entryDy=0;entryPerimeter=0;" edge="1" parent="1" source="QlxagLDDF9jE6hGfcNdt-1" target="QlxagLDDF9jE6hGfcNdt-3">
          <mxGeometry relative="1" as="geometry" />
        </mxCell>
      </root>
    </mxGraphModel>
  </diagram>
</mxfile>
